<?xml version="1.0" standalone="no"?>
<!DOCTYPE svg PUBLIC "-//W3C//DTD SVG 20010904//EN"
 "http://www.w3.org/TR/2001/REC-SVG-20010904/DTD/svg10.dtd">
<svg version="1.0" xmlns="http://www.w3.org/2000/svg"
 width="500.000000pt" height="500.000000pt" viewBox="0 0 500.000000 500.000000"
 preserveAspectRatio="xMidYMid meet">
<metadata>
Created by potrace 1.14, written by Peter Selinger 2001-2017
</metadata>
<g transform="translate(0.000000,500.000000) scale(0.100000,-0.100000)"
fill="#000000" stroke="none">
<path d="M2770 4205 c-19 -50 -12 -123 16 -171 15 -25 28 -43 30 -41 2 2 8 28
14 57 11 60 -6 146 -35 170 -12 10 -16 8 -25 -15z"/>
<path d="M2350 4206 c0 -25 401 -236 409 -215 5 15 -48 78 -107 126 -32 26
-75 49 -114 61 -66 21 -188 38 -188 28z"/>
<path d="M2994 4191 c-52 -24 -124 -113 -124 -155 0 -23 177 74 201 110 41 63
7 83 -77 45z"/>
<path d="M2310 4158 c0 -25 60 -117 93 -142 63 -48 143 -78 226 -83 83 -6 137
7 90 22 -51 16 -228 106 -313 159 -48 31 -90 56 -92 56 -2 0 -4 -6 -4 -12z"/>
<path d="M3130 4083 c-67 -11 -229 -77 -217 -89 2 -3 26 0 53 6 89 20 248 39
342 41 50 1 92 5 92 10 0 22 -190 45 -270 32z"/>
<path d="M3120 3985 c-112 -16 -229 -42 -250 -56 -13 -8 -10 -13 15 -34 116
-96 376 -77 518 39 28 22 52 47 55 54 5 16 -209 15 -338 -3z"/>
<path d="M2721 3758 c-82 -180 -123 -421 -137 -810 l-7 -178 72 0 c64 0 72 2
67 18 -18 60 -36 266 -36 411 0 184 18 349 54 512 13 57 22 106 20 108 -2 2
-17 -25 -33 -61z"/>
<path d="M2252 3682 c-9 -6 0 -12 30 -21 110 -33 230 -114 281 -190 19 -29 22
-27 31 15 11 50 -43 121 -124 161 -68 34 -191 54 -218 35z"/>
<path d="M2165 3628 c42 -142 167 -228 331 -228 l65 0 -31 44 c-56 82 -169
154 -290 186 -25 6 -53 14 -63 17 -16 4 -18 1 -12 -19z"/>
<path d="M2892 3510 c-29 -10 -66 -29 -83 -41 -31 -22 -93 -99 -85 -106 2 -3
26 11 53 30 66 48 135 81 221 107 39 12 72 24 72 26 0 12 -133 0 -178 -16z"/>
<path d="M3045 3470 c-38 -10 -88 -26 -110 -35 -52 -22 -175 -97 -175 -107 0
-22 154 4 226 38 72 34 174 126 137 123 -5 0 -39 -8 -78 -19z"/>
<path d="M3012 3248 c-7 -7 -12 -35 -12 -63 0 -69 40 -131 122 -189 135 -96
152 -122 124 -191 -25 -58 -43 -62 -331 -69 -143 -3 -327 -9 -409 -12 -147 -6
-151 -7 -178 -34 -35 -35 -36 -69 -2 -109 l26 -31 393 0 c328 0 394 -2 398
-14 3 -8 3 -17 0 -20 -4 -3 -188 -6 -410 -6 -443 0 -455 -2 -470 -58 -10 -38
-4 -63 20 -89 l20 -23 413 0 c352 0 413 -2 424 -15 10 -12 10 -16 -1 -20 -8
-2 -175 -6 -371 -7 l-356 -3 -26 -24 c-34 -32 -36 -88 -3 -119 23 -22 27 -22
389 -22 291 0 368 -3 377 -13 26 -33 -7 -37 -289 -37 -276 0 -277 0 -298 -23
-47 -49 -18 -129 50 -142 18 -3 256 -5 529 -3 l496 3 124 65 124 64 143 4 142
4 0 314 0 314 -105 0 c-137 0 -154 9 -279 146 -124 138 -228 231 -286 256 -25
11 -103 41 -175 68 -71 26 -161 62 -199 79 -75 34 -96 37 -114 19z"/>
<path d="M810 2200 l0 -760 95 0 95 0 0 340 0 340 295 0 295 0 0 75 0 75 -295
0 -295 0 0 270 0 270 339 0 339 0 5 23 c3 12 9 46 13 75 l7 52 -447 0 -446 0
0 -760z"/>
<path d="M2161 2822 c-59 -40 -108 -112 -121 -181 -25 -120 -35 -137 -110
-181 -80 -46 -101 -73 -124 -153 -15 -51 -21 -60 -54 -73 -89 -38 -87 -36 -86
-84 1 -25 3 -56 4 -70 1 -14 -1 -42 -5 -63 -6 -30 -4 -42 11 -58 16 -18 26
-19 79 -14 58 6 62 5 105 -29 25 -19 66 -40 92 -47 40 -11 54 -10 105 5 93 29
141 31 198 6 109 -47 188 -45 250 4 27 22 28 23 10 49 -19 30 -22 95 -5 126
10 19 8 21 -27 21 -136 0 -197 83 -148 203 6 13 2 17 -18 17 -34 0 -83 43 -97
86 -15 44 -1 86 41 130 30 31 30 32 15 62 -45 87 16 181 118 183 28 0 69 4 91
8 l40 8 -37 17 c-21 9 -53 16 -72 16 -18 0 -53 9 -77 20 -65 29 -127 26 -178
-8z m49 -86 c0 -8 -5 -18 -11 -22 -14 -8 -33 11 -25 25 10 16 36 13 36 -3z
m-54 -167 c10 -17 -13 -36 -27 -22 -12 12 -4 33 11 33 5 0 12 -5 16 -11z m-81
-159 c0 -22 -29 -18 -33 3 -3 14 1 18 15 15 10 -2 18 -10 18 -18z m100 -101
c0 -7 -8 -15 -17 -17 -18 -3 -25 18 -11 32 10 10 28 1 28 -15z m-240 -9 c0 -8
-8 -16 -17 -18 -13 -2 -18 3 -18 18 0 15 5 20 18 18 9 -2 17 -10 17 -18z m343
-133 c2 -10 -3 -17 -12 -17 -18 0 -29 16 -21 31 9 14 29 6 33 -14z m-364 -32
c3 -9 -1 -18 -10 -22 -19 -7 -28 2 -21 22 8 19 23 19 31 0z m202 -6 c10 -17
-13 -36 -27 -22 -12 12 -4 33 11 33 5 0 12 -5 16 -11z m-368 -92 c2 -12 -3
-17 -17 -17 -12 0 -21 6 -21 13 0 31 32 34 38 4z m647 3 c0 -22 -29 -18 -33 3
-3 14 1 18 15 15 10 -2 18 -10 18 -18z m-382 -34 c7 -16 -1 -26 -20 -26 -7 0
-13 9 -13 20 0 23 25 27 33 6z m223 -47 c10 -17 -13 -36 -27 -22 -12 12 -4 33
11 33 5 0 12 -5 16 -11z"/>
<path d="M2840 2834 c-26 -18 -50 -43 -50 -54 0 -7 358 -1 380 6 32 11 -23 26
-90 25 -48 -1 -80 4 -111 19 -54 24 -97 25 -129 4z m70 -18 c0 -20 -19 -31
-32 -18 -6 6 -7 15 -4 21 10 16 36 13 36 -3z"/>
<path d="M1861 2538 c-14 -7 -38 -32 -55 -56 -17 -24 -45 -52 -63 -62 -47 -28
-67 -63 -60 -107 8 -48 20 -59 50 -46 17 8 28 25 36 60 18 71 47 111 113 154
33 21 64 40 71 42 18 7 6 15 -33 21 -21 4 -45 1 -59 -6z m-117 -209 c-8 -14
-34 -11 -34 4 0 8 3 17 7 20 9 9 34 -13 27 -24z"/>
<path d="M3806 1680 c-36 -11 -66 -38 -66 -59 0 -9 7 -26 15 -38 14 -20 35
-29 118 -47 53 -12 24 -66 -35 -66 -13 0 -37 9 -55 19 -25 16 -34 17 -42 7
-19 -23 23 -49 87 -54 69 -5 112 21 112 67 0 38 -25 57 -92 70 -58 12 -78 32
-57 57 16 19 69 18 98 -2 20 -15 24 -15 38 -1 14 13 13 17 -8 30 -33 20 -78
27 -113 17z"/>
<path d="M1336 1573 c-27 -59 -50 -114 -53 -120 -3 -8 3 -13 15 -13 12 0 24
11 32 30 12 29 15 30 77 30 62 0 64 -1 74 -30 7 -20 18 -30 31 -30 24 0 22 5
-37 137 -36 80 -49 99 -67 101 -21 3 -29 -9 -72 -105z m113 -35 c1 -5 -20 -8
-45 -8 -25 0 -44 3 -42 8 2 4 12 29 23 56 l19 50 22 -50 c13 -27 23 -52 23
-56z"/>
<path d="M1790 1560 c0 -100 3 -120 15 -120 11 0 15 12 15 45 l0 45 39 0 c36
0 42 -4 68 -45 20 -32 35 -45 51 -45 25 0 24 4 -15 57 l-23 32 25 25 c32 32
33 75 2 104 -20 19 -35 22 -100 22 l-77 0 0 -120z m141 80 c21 -12 25 -40 7
-58 -7 -7 -36 -12 -65 -12 l-53 0 0 33 c0 19 3 37 7 40 10 11 82 8 104 -3z"/>
<path d="M2270 1560 c0 -116 1 -120 21 -120 21 0 21 3 15 90 -4 50 -6 90 -3
90 2 0 21 -25 43 -55 21 -30 44 -55 50 -55 7 0 29 21 50 48 20 26 40 50 44 55
3 4 4 -33 2 -83 -4 -86 -4 -90 17 -90 20 0 21 4 21 120 0 113 -1 120 -20 120
-12 0 -34 -21 -62 -60 -23 -33 -45 -60 -48 -60 -4 0 -26 27 -50 60 -26 36 -51
60 -62 60 -16 0 -18 -10 -18 -120z"/>
<path d="M2810 1560 l0 -120 90 0 c83 0 90 1 90 20 0 18 -7 20 -70 20 l-70 0
0 35 0 35 60 0 c47 0 60 3 60 15 0 12 -13 15 -60 15 l-60 0 0 35 0 35 70 0
c56 0 70 3 70 15 0 12 -17 15 -90 15 l-90 0 0 -120z"/>
<path d="M3270 1560 c0 -100 3 -120 15 -120 11 0 15 12 15 45 l0 45 39 0 c36
0 42 -4 68 -45 20 -32 35 -45 51 -45 25 0 24 4 -15 57 l-23 32 25 25 c32 32
33 75 2 104 -20 19 -35 22 -100 22 l-77 0 0 -120z m141 80 c21 -12 25 -40 7
-58 -7 -7 -36 -12 -65 -12 l-53 0 0 33 c0 19 3 37 7 40 10 11 82 8 104 -3z"/>
<path d="M1700 1190 c0 -40 4 -70 10 -70 6 0 10 14 10 30 0 28 2 30 40 30 22
0 40 5 40 10 0 6 -18 10 -40 10 -33 0 -40 3 -40 20 0 17 7 20 45 20 25 0 45 5
45 10 0 6 -25 10 -55 10 l-55 0 0 -70z"/>
<path d="M2030 1190 c0 -40 4 -70 10 -70 6 0 10 11 10 25 0 20 5 25 25 25 15
0 31 -9 41 -25 9 -14 23 -25 31 -25 11 0 10 6 -6 29 -18 24 -19 30 -6 35 18 7
20 47 3 64 -7 7 -34 12 -60 12 l-48 0 0 -70z m95 30 c0 -10 -12 -16 -37 -18
-33 -3 -38 0 -38 18 0 18 5 21 38 18 25 -2 37 -8 37 -18z"/>
<path d="M2380 1250 c0 -5 7 -10 15 -10 11 0 15 -12 15 -50 0 -38 -4 -50 -15
-50 -8 0 -15 -4 -15 -10 0 -5 20 -10 45 -10 25 0 45 5 45 10 0 6 -7 10 -15 10
-11 0 -15 12 -15 50 0 38 4 50 15 50 8 0 15 5 15 10 0 6 -20 10 -45 10 -25 0
-45 -4 -45 -10z"/>
<path d="M2690 1190 l0 -70 55 0 c30 0 55 5 55 10 0 6 -18 10 -40 10 -33 0
-40 3 -40 20 0 16 7 20 35 20 19 0 35 5 35 10 0 6 -16 10 -35 10 -28 0 -35 4
-35 20 0 17 7 20 40 20 22 0 40 5 40 10 0 6 -25 10 -55 10 l-55 0 0 -70z"/>
<path d="M3030 1190 c0 -40 4 -70 10 -70 6 0 10 24 10 53 l1 52 49 -52 c27
-29 54 -53 59 -53 7 0 11 27 11 70 0 40 -4 70 -10 70 -5 0 -10 -24 -10 -52 l0
-53 -51 53 c-28 28 -55 52 -60 52 -5 0 -9 -31 -9 -70z"/>
<path d="M3400 1190 l0 -70 45 0 c79 0 123 72 75 120 -15 15 -33 20 -70 20
l-50 0 0 -70z m96 42 c42 -28 10 -92 -46 -92 -29 0 -30 1 -30 50 0 50 0 50 33
50 17 0 37 -4 43 -8z"/>
</g>
</svg>
